PathFileType	4	(X/Y/Z)	C:\Users\Basilio\Documents\Thesis Gigler\squatting_fais\c3dfiles\044\SLS_front_pre5\markers_experimental.trc
DataRate	CameraRate	NumFrames	NumMarkers	Units	OrigDataRate	OrigDataStartFrame	OrigNumFrames
200.000000	200.000000	4	60	mm	200.000000	535	1427
Frame#	Time	FHD			LBHD			RBHD			C7			T10			LSHO			LUUPA			LMUPA			LDUPA			LLEP			LMEP			LUL			LRFIN			RSHO			RUPA1			RMUPA			RDUPA			RLEP			RMEP			RUL			RUFIN			LASI			RASI			USACR			LSACR			RSACR			LTHI1			LTHI2			LTHI3			LTHI4			LLFC			LMFC			LTIB1			LTIB2			LTIB3			LTIB4			LLMAL			LMMAL			LHEE			LMT1			LMT2			LMT5			RTHI			RTHI2			RTHI3			RTHI4			RLFC			RMFC			RTIB1			RTIB2			RTIB3			RTIB4			RLMAL			RHEE			RMT1			RMT2			RMT5			CLAV			RMMAL			LRAD			
		X1	Y1	Z1	X2	Y2	Z2	X3	Y3	Z3	X4	Y4	Z4	X5	Y5	Z5	X6	Y6	Z6	X7	Y7	Z7	X8	Y8	Z8	X9	Y9	Z9	X10	Y10	Z10	X11	Y11	Z11	X12	Y12	Z12	X13	Y13	Z13	X14	Y14	Z14	X15	Y15	Z15	X16	Y16	Z16	X17	Y17	Z17	X18	Y18	Z18	X19	Y19	Z19	X20	Y20	Z20	X21	Y21	Z21	X22	Y22	Z22	X23	Y23	Z23	X24	Y24	Z24	X25	Y25	Z25	X26	Y26	Z26	X27	Y27	Z27	X28	Y28	Z28	X29	Y29	Z29	X30	Y30	Z30	X31	Y31	Z31	X32	Y32	Z32	X33	Y33	Z33	X34	Y34	Z34	X35	Y35	Z35	X36	Y36	Z36	X37	Y37	Z37	X38	Y38	Z38	X39	Y39	Z39	X40	Y40	Z40	X41	Y41	Z41	X42	Y42	Z42	X43	Y43	Z43	X44	Y44	Z44	X45	Y45	Z45	X46	Y46	Z46	X47	Y47	Z47	X48	Y48	Z48	X49	Y49	Z49	X50	Y50	Z50	X51	Y51	Z51	X52	Y52	Z52	X53	Y53	Z53	X54	Y54	Z54	X55	Y55	Z55	X56	Y56	Z56	X57	Y57	Z57	X58	Y58	Z58	X59	Y59	Z59	X60	Y60	Z60	

536	2.675	-234.1578063964844	1728.88623046875	-1059.258666992188	-368.6773681640626	1690.341064453125	-1133.953247070313	-408.2976074218751	1676.366455078125	-973.3674316406252	-427.4536132812501	1505.009521484375	-1058.303588867188	-452.3515014648439	1204.107666015625	-1034.101318359375	-332.8521728515626	1515.452758789063	-1203.14111328125	-167.151123046875	1477.357421875	-1295.516723632813	-140.74267578125	1485.726318359375	-1253.250366210938	-98.6236267089844	1466.844116210938	-1294.847045898438	-40.86286163330079	1461.810546875	-1282.5244140625	-57.95663833618165	1385.666137695313	-1267.684204101563	206.1331329345704	1451.819702148438	-1150.713745117188	214.2489624023438	1465.4345703125	-1048.498046875	-342.3099365234376	1512.454711914063	-898.2391357421877	-191.8183746337891	1470.53759765625	-792.3397216796877	-159.3370666503907	1483.051025390625	-829.2881469726565	-122.9957046508789	1463.843505859375	-786.9139404296877	-61.01414489746095	1460.888671875	-794.9793090820315	-70.63722991943361	1380.77197265625	-806.684997558594	193.0011901855469	1451.203369140625	-915.9646606445315	208.8254394531251	1437.9326171875	-1030.766845703125	-291.7612609863282	995.0190429687502	-1115.2177734375	-291.8378295898438	1002.910095214844	-900.367614746094	-458.8665771484376	1051.185424804688	-1008.193908691406	-463.9148559570314	1015.839965820313	-1031.169189453125	-466.1548156738282	1026.358642578125	-975.2449340820315	-316.7978210449219	752.5499877929689	-1182.018310546875	-254.4190521240235	695.7737426757814	-1185.487915039063	-211.3898925781251	715.8495483398439	-1181.3056640625	-255.9006347656251	636.9598388671876	-1168.211303710938	-185.957992553711	500.0232849121095	-1151.088012695313	-168.9582672119141	507.1468505859376	-1030.293823242188	-199.3336334228516	337.4179687500001	-1050.65625	-242.0475769042969	290.7609863281251	-1113.03271484375	-212.5132598876954	285.8175048828126	-1077.066040039063	-249.3866119384766	222.0191650390626	-1034.734008789063	-337.6112060546876	123.9279174804688	-1064.020629882813	-313.4084167480469	140.009506225586	-981.6760253906252	-406.8543701171876	111.4539260864258	-1009.100219726563	-201.3002929687501	63.31874847412111	-987.1033935546877	-199.8346252441407	60.65076828002931	-1033.968627929688	-238.541976928711	47.00220108032227	-1080.068481445313	-260.0904235839844	755.4219360351564	-800.1413574218752	-196.2333068847657	733.3649902343751	-805.2895507812502	-171.8019104003907	752.4502563476564	-817.3834228515627	-174.6287078857422	652.1677856445314	-814.165222167969	-121.3802871704102	555.1095581054689	-815.2857055664065	-133.2503967285157	534.5952148437501	-935.5789794921877	-38.85773468017579	446.491180419922	-836.8555297851565	-81.83339691162111	361.8114624023438	-780.3592529296877	-41.71368408203126	366.1806640625001	-800.5945434570315	-17.47354125976563	318.6006164550782	-822.952087402344	-31.81456184387208	155.0792083740235	-790.4315185546877	-67.65316772460939	86.57942962646486	-827.0129394531252	125.6309814453125	164.1918640136719	-862.6567993164065	133.0403442382813	173.5115509033203	-826.124694824219	109.38671875	145.8934173583985	-769.5355224609377	-288.1734924316407	1463.975830078125	-1055.9384765625	-17.80720329284668	159.143295288086	-874.864929199219	nan	nan	nan	
537	2.68	-234.1497650146485	1727.696533203125	-1059.482543945313	-369.9034118652344	1688.934936523438	-1134.274291992188	-408.1806945800782	1675.541259765625	-973.6126098632815	-427.087615966797	1503.171142578125	-1058.245971679688	-452.4483642578126	1203.14501953125	-1034.169799804688	-332.9971008300782	1514.254150390625	-1203.294921875	-166.9798583984375	1476.565551757813	-1296.039184570313	-140.8055877685547	1484.76904296875	-1253.5927734375	-98.76902008056643	1465.854858398438	-1295.046264648438	-40.95891189575196	1460.8935546875	-1282.723510742188	-57.87488174438478	1383.546630859375	-1267.98291015625	205.9855651855469	1451.055419921875	-1151.062744140625	214.3167572021485	1464.699462890625	-1048.924438476563	-342.4895629882813	1511.583129882813	-898.4844360351565	-192.1997833251954	1469.914184570313	-792.985046386719	-159.4162292480469	1482.186767578125	-829.6816406250002	-123.074691772461	1463.126098632813	-787.2467041015627	-60.87808227539064	1459.906616210938	-795.288024902344	-70.56443786621095	1379.677001953125	-806.8395996093752	192.8512115478516	1450.388916015625	-916.3063964843752	209.0036926269532	1436.888916015625	-1031.052978515625	-293.7677001953126	993.0029907226565	-1114.44189453125	-292.0265808105469	1001.915649414063	-900.5267333984377	-459.1808471679689	1050.00244140625	-1008.198547363281	-464.2463989257814	1014.815734863281	-1031.146606445313	-466.3020324707032	1025.193481445313	-975.2952270507815	-316.5221862792969	752.0584716796876	-1182.159057617188	-254.2690582275391	695.2555541992189	-1185.716674804688	-211.1980285644532	715.3787841796876	-1181.513061523438	-255.3395538330079	636.3630981445314	-1168.550537109375	-185.3596496582032	499.6937255859376	-1151.343872070313	-168.080062866211	506.7838745117189	-1030.619140625	-199.0995483398438	337.0357360839844	-1051.308837890625	-241.7919464111329	290.4552307128907	-1113.168212890625	-211.1156463623047	284.0496826171876	-1076.674072265625	-248.9804382324219	221.7816772460938	-1035.020385742188	-337.5637817382813	123.9098892211914	-1064.107788085938	-313.3306884765626	139.9890441894532	-981.7204589843752	-406.8894958496095	111.474838256836	-1009.14599609375	-201.3326721191407	63.23940658569337	-987.1778564453127	-199.8703765869141	60.69496154785158	-1034.060913085938	-238.5235748291016	46.86818313598634	-1080.080078125	-259.7203674316407	754.9919433593751	-800.0762329101565	-195.7552795410157	733.0839233398439	-805.1609497070315	-171.2439727783203	752.3801879882814	-817.5162353515627	-174.1084899902344	652.0305786132814	-814.117370605469	-120.1449737548828	555.2922973632814	-815.1509399414065	-132.0902862548828	534.4629516601564	-935.6075439453127	-37.46545028686524	446.8588256835939	-836.6809692382815	-79.87257385253908	361.6749877929688	-779.8731079101565	-39.93264389038087	366.4129028320313	-800.5902099609377	-15.68646144866944	319.1785888671876	-822.7885742187502	-29.66477203369141	155.7286071777344	-790.4224243164065	-64.99672698974611	86.43011474609376	-826.166198730469	127.9309768676758	164.9456329345703	-862.4379882812502	135.2263946533203	173.2913513183594	-825.7770996093752	111.555290222168	146.604248046875	-769.3104248046877	-288.2701110839844	1462.850830078125	-1056.046630859375	-15.57056045532227	159.4383850097657	-874.6510009765627	nan	nan	nan	
538	2.685	-234.162094116211	1726.93212890625	-1059.802124023438	-366.5262451171876	1689.376831054688	-1134.716186523438	-408.1550903320314	1674.450317382813	-974.0252685546877	-427.1549377441407	1502.580200195313	-1058.660034179688	-452.7211914062501	1202.212646484375	-1034.158081054688	-332.8220214843751	1513.42041015625	-1203.698608398438	-167.447982788086	1475.047607421875	-1296.144287109375	-140.8321990966797	1483.87646484375	-1253.814086914063	-98.75337982177737	1464.721801757813	-1295.418823242188	-40.39337158203126	1459.200317382813	-1283.295166015625	-57.94397354125978	1383.1259765625	-1268.116455078125	206.2438049316407	1449.626220703125	-1151.318359375	214.2325286865235	1463.290161132813	-1049.063110351563	-342.1395874023438	1510.51171875	-898.6306152343752	-192.1181945800782	1469.105102539063	-793.133728027344	-159.2407531738282	1481.083618164063	-829.769226074219	-122.9449920654297	1461.9619140625	-787.3956298828127	-61.05038833618165	1459.007568359375	-795.5779418945315	-70.56781005859376	1378.7236328125	-807.1609497070315	192.8469696044922	1449.363647460938	-916.668395996094	208.7454833984376	1435.817504882813	-1031.356079101563	-292.0888061523438	992.6739501953127	-1115.495971679688	-292.1616210937501	1001.22802734375	-900.480895996094	-459.4343872070314	1048.888061523438	-1008.102294921875	-465.004364013672	1014.151916503906	-1031.038696289063	-466.5923767089845	1024.37353515625	-975.2556762695315	-316.4343566894532	751.3873291015626	-1182.29638671875	-253.9845123291016	694.6904296875001	-1185.973876953125	-211.1917114257813	715.0005493164064	-1181.730590820313	-254.9479980468751	635.7304687500001	-1168.852294921875	-184.6713409423828	499.4049377441407	-1151.621704101563	-167.4666442871094	506.4031066894532	-1030.806030273438	-198.4769744873047	336.8604125976563	-1051.609252929688	-241.3528900146485	290.1478576660157	-1113.23583984375	-210.6312561035157	284.0560913085938	-1077.0009765625	-248.6836853027344	221.6292724609376	-1035.161376953125	-337.5185241699219	123.8633193969727	-1064.129760742188	-313.2505798339844	140.0072174072266	-981.7722778320315	-406.9331665039064	111.4991683959961	-1009.092163085938	-201.313949584961	63.27515792846681	-987.1880493164065	-199.8743438720704	60.70689773559572	-1034.056762695313	-238.568832397461	46.91707611083985	-1080.067016601563	-259.3936157226563	754.1448364257814	-799.697937011719	-195.1337280273438	732.7524414062501	-805.0252685546877	-170.8808288574219	752.3115844726564	-817.5043945312502	-172.8054809570313	651.7499389648439	-814.297546386719	-119.33544921875	555.7607421875001	-815.422546386719	-130.9917602539063	534.2946777343751	-935.5454711914065	-35.97810363769532	447.2742004394532	-836.7259521484377	-78.30055236816408	361.9086914062501	-779.5337524414065	-38.30718994140626	366.6930236816407	-800.3057861328127	-14.02154350280762	319.6042175292969	-822.7656860351565	-27.22052001953126	155.8504180908203	-789.8054809570315	-62.55548095703126	86.81521606445314	-825.878845214844	129.4744110107422	164.8877716064453	-862.7287597656252	137.4068298339844	174.0800018310547	-825.8135986328127	113.8358154296875	147.3043060302735	-769.4014892578127	-288.3020629882813	1461.897583007813	-1056.269287109375	-13.49071502685547	159.6091766357422	-874.5100097656252	nan	nan	nan	
539	2.69	-234.1858367919922	1725.383544921875	-1060.203125	-369.0744323730469	1687.24853515625	-1134.886596679688	-408.300506591797	1673.482177734375	-973.992126464844	-427.1605529785157	1501.816162109375	-1058.892456054688	-452.7937316894532	1201.512451171875	-1034.3369140625	-332.9457702636719	1512.5419921875	-1203.93994140625	-167.5480346679688	1474.083984375	-1296.313232421875	-140.6932373046875	1482.718017578125	-1254.065551757813	-98.75833129882815	1463.74072265625	-1295.694702148438	-40.39964294433594	1458.208618164063	-1283.546142578125	-58.07829666137697	1381.26123046875	-1268.4638671875	206.1553039550782	1448.580444335938	-1151.523559570313	214.1985321044922	1462.54443359375	-1049.320068359375	-342.0181884765626	1509.543701171875	-898.9143066406252	-192.0190887451172	1467.792358398438	-793.1370239257815	-159.4069976806641	1480.42333984375	-830.023864746094	-122.9563827514649	1461.088623046875	-787.6594238281252	-60.94949340820314	1458.076293945313	-795.873718261719	-70.72937011718751	1377.7724609375	-807.4395141601565	192.8667449951172	1448.275634765625	-916.9033203125002	208.6047515869141	1435.040283203125	-1031.615600585938	-294.1632385253907	991.616638183594	-1114.417358398438	-292.4148864746094	1000.502746582031	-900.7463989257815	-459.7672424316407	1048.079711914063	-1008.140197753906	-465.1661071777345	1013.200378417969	-1031.093994140625	-466.8711547851564	1023.381591796875	-975.276062011719	-316.3083496093751	750.5364990234376	-1182.62158203125	-253.7365112304688	694.2078247070314	-1186.202514648438	-210.823226928711	714.3801879882814	-1181.982299804688	-254.7103424072266	635.0393066406251	-1169.154174804688	-184.2634429931641	499.3951721191407	-1151.868286132813	-166.6917877197266	505.8225402832032	-1031.1689453125	-197.9415740966797	336.5409851074219	-1051.91943359375	-241.0084838867188	289.8873901367188	-1113.373657226563	-210.0379638671876	284.1320190429688	-1077.299438476563	-248.5529785156251	221.5319824218751	-1035.106567382813	-337.4838562011719	123.8621063232422	-1064.113525390625	-313.1985473632813	140.0012817382813	-981.815368652344	-406.9027709960939	111.5061492919922	-1009.125732421875	-201.2788696289063	63.31452560424806	-987.2006835937502	-199.8726806640626	60.69901657104494	-1034.06396484375	-238.597152709961	46.87104034423829	-1080.097778320313	-259.1770629882813	753.6307373046876	-799.9544677734377	-194.9938201904297	732.6980590820314	-806.2495117187502	-170.5648040771485	752.1055297851564	-817.515563964844	-172.2189636230469	651.6370849609376	-814.2167968750002	-117.9740447998047	555.3325195312501	-814.925476074219	-129.8943023681641	534.3953247070314	-935.451354980469	-34.66620254516602	447.7810974121095	-836.6271972656252	-76.58505249023439	362.2286987304688	-779.4011230468752	-36.49895477294923	367.1160583496094	-800.2568359375002	-12.22566986083985	319.8212890625001	-822.6978149414065	-24.94456481933594	156.1268310546875	-789.688171386719	-60.8519744873047	87.2556838989258	-825.0695800781252	132.3453826904297	166.6390838623047	-862.175231933594	139.3893127441407	175.05029296875	-826.3204345703127	116.3608932495117	147.6814270019532	-769.1810302734377	-288.2055664062501	1461.055053710938	-1056.584838867188	-11.31385040283203	159.9907379150391	-874.3231201171877	nan	nan	nan	
